<svg width="28" height="28" viewBox="0 0 28 28" fill="none" xmlns="http://www.w3.org/2000/svg">
<path d="M6.73135 9.9668H10.327C11.4367 9.9668 11.717 10.7324 11.717 11.7236C11.717 12.1839 11.6509 12.7012 11.5849 13.2025C11.4778 14.0319 11.3775 14.8112 11.6054 15.0938C11.9859 15.5677 12.5351 16.1169 13.1229 16.7048C14.579 18.1631 16.2606 19.847 16.386 21.3555C16.4612 22.2783 16.4771 23.4678 16.3108 24.5661C16.1832 25.4137 15.9439 26.2135 15.5406 26.8105C15.3332 27.1159 15.0917 27.3893 14.7818 27.599C14.4696 27.8086 14.0937 27.9522 13.622 27.9954C13.6151 27.9954 13.606 27.9954 13.5992 27.9954H7.52431C7.51292 27.9954 7.50153 27.9954 7.49241 27.9932C6.84528 27.9567 6.26195 27.8086 5.77204 27.5078C5.26846 27.1979 4.87197 26.7308 4.60993 26.0632C4.60309 26.0449 4.59853 26.0267 4.59626 26.0085C4.04482 23.3037 3.81924 20.6081 4.08356 17.9512C4.34788 15.2829 5.10439 12.6533 6.51715 10.0967C6.55817 10.0146 6.64476 9.96908 6.73135 9.9668ZM4.48688 19.332C8.62262 20.3141 10.8557 17.1423 14.579 18.9674C14.0298 18.318 13.3804 17.6663 12.7743 17.0579C12.1773 16.4609 11.619 15.9004 11.2203 15.4082C10.858 14.9593 10.9719 14.0775 11.0927 13.141C11.1542 12.6624 11.218 12.168 11.218 11.7259C11.218 11.0195 11.038 10.4704 10.327 10.4704H6.87946C5.54873 12.9245 4.83096 15.4447 4.57803 18.0013C4.53245 18.4434 4.50283 18.8877 4.48688 19.332ZM13.9136 1.58822L13.8863 4.75553C13.8863 4.86947 13.8088 4.96517 13.704 4.99251C12.9407 5.20898 12.2685 5.50065 11.7535 5.9541C11.2522 6.39616 10.8922 7.00228 10.7304 7.85905V8.94141C10.7304 9.0804 10.6187 9.19206 10.4797 9.19206H6.84984C6.63336 9.21257 6.46019 9.16243 6.32575 9.028C6.2027 8.90267 6.13662 8.71126 6.13434 8.44238C6.13434 8.43327 6.13434 8.42415 6.13434 8.41732C6.21637 7.52865 6.03408 6.86556 5.61481 6.34831C5.18415 5.81966 4.49144 5.42546 3.56859 5.0905C3.4387 5.04264 3.37262 4.90137 3.4182 4.77148V4.76921C3.91722 3.44759 4.6874 2.60449 5.65127 2.0804C6.60374 1.56315 7.73851 1.36719 8.98265 1.33301C9.75967 1.3125 10.5412 1.29655 11.3251 1.29427C12.1089 1.29199 12.8905 1.30111 13.6698 1.33073C13.8111 1.33301 13.9182 1.44922 13.9136 1.58822ZM13.3895 4.56641L13.4123 1.82064C12.7151 1.79785 12.0201 1.79102 11.3274 1.79329C10.5526 1.79557 9.77562 1.81152 8.99632 1.83203C7.8251 1.86393 6.76553 2.04622 5.89053 2.52018C5.08389 2.95768 4.42991 3.65039 3.97874 4.71452C4.86741 5.06087 5.54645 5.47786 6.00218 6.03613C6.50576 6.65365 6.72451 7.42839 6.63336 8.4515C6.63564 8.57682 6.65387 8.65202 6.68349 8.68392C6.69945 8.69987 6.74046 8.70443 6.80198 8.69987C6.81566 8.69759 6.82933 8.69531 6.843 8.69531H10.2313V7.84538C10.2313 7.83171 10.2336 7.81576 10.2359 7.80208C10.4182 6.80859 10.8352 6.10449 11.4231 5.58496C11.9631 5.10645 12.633 4.79427 13.3895 4.56641ZM14.4241 1.5153L14.4446 4.55957H15.9325C16.1422 4.56641 16.2492 4.39095 16.1991 3.9375V2.02799C16.1946 1.86165 16.1262 1.75228 15.9986 1.69531L14.4241 1.5153ZM19.3801 2.50423C19.8108 2.50423 20.1594 2.79818 20.1594 3.16276C20.1594 3.52734 19.8108 3.82129 19.3801 3.82129C18.9494 3.82129 18.6008 3.52734 18.6008 3.16276C18.6008 2.79818 18.9494 2.50423 19.3801 2.50423ZM23.8166 2.43815C24.2473 2.43815 24.5959 2.7321 24.5959 3.09668C24.5959 3.46126 24.2473 3.75521 23.8166 3.75521C23.386 3.75521 23.0373 3.46126 23.0373 3.09668C23.0373 2.7321 23.386 2.43815 23.8166 2.43815ZM23.73 4.9196C24.1607 4.9196 24.5093 5.21354 24.5093 5.57812C24.5093 5.94271 24.1607 6.23665 23.73 6.23665C23.2994 6.23665 22.9507 5.94271 22.9507 5.57812C22.9507 5.21354 23.2994 4.9196 23.73 4.9196ZM21.5767 3.75521C22.0074 3.75521 22.356 4.04915 22.356 4.41374C22.356 4.77832 22.0074 5.07227 21.5767 5.07227C21.1461 5.07227 20.7974 4.77832 20.7974 4.41374C20.7974 4.05143 21.1461 3.75521 21.5767 3.75521ZM23.8166 0C24.2473 0 24.5959 0.293945 24.5959 0.658529C24.5959 1.02311 24.2473 1.31706 23.8166 1.31706C23.386 1.31706 23.0373 1.02311 23.0373 0.658529C23.0373 0.293945 23.386 0 23.8166 0ZM21.5995 1.25098C22.0302 1.25098 22.3788 1.54492 22.3788 1.90951C22.3788 2.27409 22.0302 2.56803 21.5995 2.56803C21.1688 2.56803 20.8202 2.27409 20.8202 1.90951C20.8179 1.5472 21.1688 1.25098 21.5995 1.25098ZM11.8104 8.12337C12.0748 7.0638 12.7082 6.36654 13.7746 6.09538C14.0139 7.79981 14.5334 9.16927 15.258 10.2835C15.7001 10.9079 14.9823 11.5527 14.4651 10.8942L12.788 8.15072L11.8104 8.12337Z" fill="#FF9300"/>
</svg>
