<svg width="28" height="28" viewBox="0 0 28 28" fill="none" xmlns="http://www.w3.org/2000/svg">
<path fill-rule="evenodd" clip-rule="evenodd" d="M8.75016 5.83337C12.294 5.83337 15.1668 8.70621 15.1668 12.25C15.1668 12.9163 15.0653 13.5589 14.8768 14.1631L21.2942 20.5805C22.4577 21.744 22.4577 23.6305 21.2942 24.794C20.1307 25.9576 18.2442 25.9576 17.0807 24.794L10.6632 18.3767C10.059 18.5652 9.41645 18.6667 8.75016 18.6667C5.20634 18.6667 2.3335 15.7939 2.3335 12.25C2.3335 11.5662 2.44048 10.9073 2.63864 10.2892L5.67391 13.3195L8.4213 12.4044C8.48007 12.3334 8.54273 12.2644 8.60927 12.1978L8.69802 12.1091C8.76437 12.0427 8.83313 11.9803 8.90402 11.9216L9.81961 9.17746L6.78075 6.14126C7.40131 5.94135 8.06312 5.83337 8.75016 5.83337ZM23.3335 8.16671V15.1667H21.0002V8.16671H23.3335ZM22.1668 3.20837C22.9722 3.20837 23.6252 3.86129 23.6252 4.66671C23.6252 5.47212 22.9722 6.12504 22.1668 6.12504C21.3614 6.12504 20.7085 5.47212 20.7085 4.66671C20.7085 3.86129 21.3614 3.20837 22.1668 3.20837Z" fill="#FF9300"/>
</svg>
