<svg width="28" height="28" viewBox="0 0 28 28" fill="none" xmlns="http://www.w3.org/2000/svg">
<path d="M7 5.25004C7 4.15965 7 3.61447 7.23445 3.20837C7.38805 2.94234 7.60896 2.72142 7.875 2.56783C8.28109 2.33337 8.82628 2.33337 9.91667 2.33337H18.0833C19.1737 2.33337 19.7189 2.33337 20.125 2.56783C20.391 2.72142 20.612 2.94234 20.7655 3.20837C21 3.61447 21 4.15965 21 5.25004C21 6.34043 21 6.88561 20.7655 7.29171C20.612 7.55774 20.391 7.77866 20.125 7.93225C19.7189 8.16671 19.1737 8.16671 18.0833 8.16671H9.91667C8.82628 8.16671 8.28109 8.16671 7.875 7.93225C7.60896 7.77866 7.38805 7.55774 7.23445 7.29171C7 6.88561 7 6.34043 7 5.25004Z" fill="#FF9300"/>
<path d="M5.83567 4.59558C5.65521 4.75586 5.5415 4.98966 5.5415 5.25C5.5415 5.51035 5.65521 5.74414 5.83567 5.90442C5.83315 5.7122 5.83316 5.50903 5.83317 5.29693V5.20308C5.83316 4.99098 5.83315 4.7878 5.83567 4.59558Z" fill="#FF9300"/>
<path d="M11.6665 18.6667V23.3334C11.6665 24.4333 11.6665 24.9833 12.0082 25.325C12.3499 25.6667 12.8999 25.6667 13.9998 25.6667C15.0998 25.6667 15.6497 25.6667 15.9915 25.325C16.3332 24.9833 16.3332 24.4333 16.3332 23.3334V18.6667C16.3332 17.5668 16.3332 17.0168 15.9915 16.6751C15.6497 16.3334 15.0998 16.3334 13.9998 16.3334C12.8999 16.3334 12.3499 16.3334 12.0082 16.6751C11.6665 17.0168 11.6665 17.5668 11.6665 18.6667Z" fill="#FF9300"/>
<path d="M22.1599 6.125H22.2193C22.7497 6.125 23.1057 6.12543 23.3817 6.14342C23.6502 6.16093 23.7815 6.19239 23.8678 6.22638C24.2443 6.37461 24.5423 6.6726 24.6905 7.04909C24.7245 7.13544 24.756 7.26668 24.7735 7.53524C24.7915 7.81118 24.7919 8.16718 24.7919 8.69762C24.7919 9.6745 24.7796 9.94216 24.7086 10.1429C24.5869 10.4874 24.3404 10.7736 24.0178 10.9451C23.8298 11.045 23.5669 11.0969 22.6009 11.2418L17.7903 11.9634C16.8888 12.0986 16.1321 12.2121 15.5342 12.3802C14.9006 12.5584 14.34 12.8244 13.9025 13.3324C13.4554 13.8515 13.271 14.4731 13.1914 15.1739C13.4296 15.1665 13.6813 15.1667 13.9366 15.1667H14.0635C14.3727 15.1667 14.6763 15.1665 14.9574 15.1795C15.0157 14.8052 15.106 14.6167 15.2285 14.4745C15.3562 14.3262 15.5523 14.193 16.0079 14.0649C16.4872 13.93 17.134 13.8314 18.1044 13.6858L22.9995 12.9516C23.7587 12.8385 24.35 12.7503 24.8389 12.4905C25.5487 12.1134 26.091 11.4835 26.3588 10.7257C26.5431 10.2037 26.5426 9.60579 26.5419 8.83819V8.66948C26.5419 8.17438 26.5419 7.76105 26.5198 7.4214C26.4967 7.06794 26.4471 6.73366 26.3189 6.40801C25.9928 5.57971 25.3371 4.92414 24.5089 4.59803C24.1832 4.46983 23.8489 4.42017 23.4955 4.39713C23.1558 4.37499 22.7424 4.37499 22.2474 4.375H22.1599C22.1667 4.63012 22.1667 4.90795 22.1667 5.20305V5.29695C22.1667 5.59207 22.1667 5.86989 22.1599 6.125Z" fill="#FF9300"/>
</svg>
